<svg width="1200" height="630" viewBox="0 0 1200 630" fill="none" xmlns="http://www.w3.org/2000/svg">
  <defs>
    <linearGradient id="bg" x1="72" y1="48" x2="1128" y2="582" gradientUnits="userSpaceOnUse">
      <stop stop-color="#040B14"/>
      <stop offset="0.5" stop-color="#0B1E35"/>
      <stop offset="1" stop-color="#0E4F84"/>
    </linearGradient>
    <linearGradient id="panel" x1="120" y1="90" x2="470" y2="420" gradientUnits="userSpaceOnUse">
      <stop stop-color="#0D2036"/>
      <stop offset="1" stop-color="#081320"/>
    </linearGradient>
    <linearGradient id="accent" x1="175" y1="148" x2="447" y2="424" gradientUnits="userSpaceOnUse">
      <stop stop-color="#7DD3FC"/>
      <stop offset="0.5" stop-color="#38BDF8"/>
      <stop offset="1" stop-color="#22C55E"/>
    </linearGradient>
    <filter id="blur" x="74" y="86" width="484" height="484" filterUnits="userSpaceOnUse" color-interpolation-filters="sRGB">
      <feGaussianBlur stdDeviation="34"/>
    </filter>
  </defs>

  <rect width="1200" height="630" rx="36" fill="url(#bg)"/>
  <g opacity="0.15">
    <path d="M0 120H1200" stroke="#7DD3FC" stroke-width="2"/>
    <path d="M0 250H1200" stroke="#7DD3FC" stroke-width="2"/>
    <path d="M0 380H1200" stroke="#7DD3FC" stroke-width="2"/>
    <path d="M0 510H1200" stroke="#7DD3FC" stroke-width="2"/>
    <path d="M170 0V630" stroke="#7DD3FC" stroke-width="2"/>
    <path d="M420 0V630" stroke="#7DD3FC" stroke-width="2"/>
    <path d="M670 0V630" stroke="#7DD3FC" stroke-width="2"/>
    <path d="M920 0V630" stroke="#7DD3FC" stroke-width="2"/>
  </g>

  <g filter="url(#blur)" opacity="0.45">
    <circle cx="326" cy="326" r="142" fill="url(#accent)"/>
  </g>

  <rect x="92" y="84" width="374" height="462" rx="44" fill="url(#panel)" stroke="rgba(125,211,252,0.18)" stroke-width="3"/>
  <path d="M200 206L238 140L283 219H200Z" fill="url(#accent)"/>
  <path d="M359 206L321 140L276 219H359Z" fill="url(#accent)"/>
  <path d="M168 292C168 221.86 224.86 165 295 165C365.14 165 422 221.86 422 292V301C422 383.291 355.291 450 273 450H264C210.98 450 168 407.02 168 354V292Z" fill="url(#accent)"/>
  <path d="M214 341L252 302L292 365L330 302L370 341" stroke="#081320" stroke-width="20" stroke-linecap="round" stroke-linejoin="round"/>
  <path d="M235 292L270 250L317 292" stroke="#081320" stroke-width="16" stroke-linecap="round" stroke-linejoin="round"/>
  <circle cx="244" cy="266" r="8" fill="#081320"/>
  <circle cx="346" cy="266" r="8" fill="#081320"/>
  <path d="M147 352H91" stroke="#7DD3FC" stroke-width="12" stroke-linecap="round"/>
  <path d="M143 386H70" stroke="#38BDF8" stroke-width="8" stroke-linecap="round"/>
  <path d="M443 352H499" stroke="#7DD3FC" stroke-width="12" stroke-linecap="round"/>
  <path d="M447 386H520" stroke="#38BDF8" stroke-width="8" stroke-linecap="round"/>
  <circle cx="430" cy="176" r="20" fill="#081320"/>
  <path d="M430 160V192" stroke="#7DD3FC" stroke-width="6" stroke-linecap="round"/>
  <path d="M446 176H414" stroke="#7DD3FC" stroke-width="6" stroke-linecap="round"/>

  <text x="560" y="212" fill="#7DD3FC" font-size="24" font-family="Segoe UI, Arial, sans-serif" letter-spacing="4">WWW.NEKOMETA.TOP</text>
  <text x="560" y="310" fill="#FFFFFF" font-size="88" font-weight="700" font-family="Segoe UI, Arial, sans-serif">NekoMeta</text>
  <text x="560" y="370" fill="#D2E7FF" font-size="30" font-family="Segoe UI, Arial, sans-serif">机场推荐 · 科学上网 · 翻墙工具</text>
  <text x="560" y="430" fill="#9EBAD7" font-size="24" font-family="Segoe UI, Arial, sans-serif">Stable picks, setup guides and practical tools for cross-border access.</text>

  <rect x="560" y="476" width="176" height="48" rx="24" fill="rgba(125,211,252,0.12)" stroke="rgba(125,211,252,0.4)"/>
  <rect x="754" y="476" width="176" height="48" rx="24" fill="rgba(56,189,248,0.12)" stroke="rgba(56,189,248,0.4)"/>
  <rect x="948" y="476" width="176" height="48" rx="24" fill="rgba(34,197,94,0.12)" stroke="rgba(34,197,94,0.4)"/>
  <text x="591" y="507" fill="#DDF6FF" font-size="22" font-family="Segoe UI, Arial, sans-serif">机场测评</text>
  <text x="792" y="507" fill="#DDF6FF" font-size="22" font-family="Segoe UI, Arial, sans-serif">Clash 指南</text>
  <text x="986" y="507" fill="#DDF6FF" font-size="22" font-family="Segoe UI, Arial, sans-serif">工具导航</text>
</svg>
